<svg width="640" height="820" viewBox="0 0 640 820" fill="none" xmlns="http://www.w3.org/2000/svg">
  <rect width="640" height="820" fill="#040505"/>
  <rect x="34" y="34" width="572" height="752" fill="#070809" stroke="#3D2A18"/>
  <rect x="74" y="74" width="492" height="672" fill="#050607" stroke="#24180F"/>

  <g opacity="0.08">
    <path d="M106 170H534" stroke="#3B2A1C"/>
    <path d="M106 300H534" stroke="#3B2A1C"/>
    <path d="M106 430H534" stroke="#3B2A1C"/>
    <path d="M106 560H534" stroke="#3B2A1C"/>
    <path d="M106 690H534" stroke="#3B2A1C"/>
    <path d="M186 106V714" stroke="#2A1D14"/>
    <path d="M320 106V714" stroke="#2A1D14"/>
    <path d="M454 106V714" stroke="#2A1D14"/>
  </g>

  <g opacity="0.28">
    <circle cx="320" cy="372" r="132" stroke="#FDBA74" stroke-width="1.6"/>
    <circle cx="320" cy="372" r="96" stroke="#FDBA74" stroke-width="1.5" stroke-dasharray="5 7"/>
    <path d="M320 284L396 326L386 432L320 476L254 432L244 326L320 284Z" fill="#FB923C" fill-opacity="0.12" stroke="#FDD09A" stroke-width="3"/>
  </g>

  <g>
    <ellipse cx="322" cy="154" rx="56" ry="62" fill="#E7BEA3"/>
    <path d="M281 141C285 102 317 84 352 91C385 98 408 126 404 165C387 150 370 143 349 142C321 142 300 149 281 141Z" fill="#0E131A"/>
    <path d="M301 219H340C393 219 438 258 447 309L466 420H174L193 309C202 258 247 219 301 219Z" fill="#11161D"/>
    <path d="M195 313L175 420H228L244 326C251 281 270 247 301 219C248 219 204 258 195 313Z" fill="#E8BC9B"/>
    <path d="M445 313L465 420H412L396 326C389 281 370 247 339 219C392 219 436 258 445 313Z" fill="#E8BC9B"/>
    <path d="M240 420H400V626H240V420Z" fill="#131922"/>
    <path d="M260 626H312L304 754H258L260 626Z" fill="#141B25"/>
    <path d="M328 626H380L382 754H336L328 626Z" fill="#131A24"/>
    <path d="M258 754H304V828H258V754Z" fill="#0E141D"/>
    <path d="M336 754H382V828H336V754Z" fill="#0E141D"/>
    <path d="M250 828H312V852H246L250 828Z" fill="#161D27"/>
    <path d="M332 828H394V852H332V828Z" fill="#161D27"/>

    <path d="M320 298C356 320 379 364 380 409C341 426 299 426 260 409C261 364 284 320 320 298Z" fill="url(#coreAfter)"/>
    <path d="M280 338C270 358 264 381 264 405" stroke="#FFE2BC" stroke-width="4" stroke-linecap="round" opacity="0.75"/>
    <path d="M360 338C370 358 376 381 376 405" stroke="#FFE2BC" stroke-width="4" stroke-linecap="round" opacity="0.75"/>
    <path d="M260 409C298 426 341 426 380 409" stroke="#FAD5A3" stroke-width="4" stroke-linecap="round" opacity="0.78"/>

    <path d="M228 420H262V626H220L228 420Z" fill="#F1C19F"/>
    <path d="M378 420H412L420 626H378V420Z" fill="#F1C19F"/>
    <path d="M280 456H360" stroke="#202732" stroke-width="7" opacity="0.35"/>
    <path d="M270 506H370" stroke="#202732" stroke-width="7" opacity="0.22"/>
    <path d="M284 556H356" stroke="#202732" stroke-width="7" opacity="0.16"/>
  </g>

  <g filter="url(#dotGlow)">
    <circle cx="275" cy="700" r="10" fill="#FDBA74"/>
    <circle cx="320" cy="700" r="10" fill="#FDBA74"/>
    <circle cx="365" cy="700" r="10" fill="#FDBA74"/>
  </g>

  <defs>
    <radialGradient id="coreAfter" cx="0" cy="0" r="1" gradientUnits="userSpaceOnUse" gradientTransform="translate(320 390) rotate(90) scale(106)">
      <stop stop-color="#FFE0B8" stop-opacity="0.58"/>
      <stop offset="1" stop-color="#FB923C" stop-opacity="0"/>
    </radialGradient>
    <filter id="dotGlow" x="239" y="664" width="162" height="72" filterUnits="userSpaceOnUse" color-interpolation-filters="sRGB">
      <feFlood flood-opacity="0" result="BackgroundImageFix"/>
      <feBlend mode="normal" in="SourceGraphic" in2="BackgroundImageFix" result="shape"/>
      <feGaussianBlur stdDeviation="13" result="effect1_foregroundBlur_0_1"/>
    </filter>
  </defs>
</svg>
